<?xml version="1.0" encoding="UTF-8"?>
<svg xmlns="http://www.w3.org/2000/svg" viewBox="0 0 120 120" role="img" aria-label="Mascotte mandarine-minuteur"><circle cx="60" cy="66" r="44" fill="#FF8A2A" stroke="#1F1433" stroke-width="4" stroke-linejoin="round"></circle><path d="M32 48 Q40 32 58 28" fill="none" stroke="#FFB36B" stroke-width="6" stroke-linecap="round"></path><rect x="53" y="8" width="14" height="8" rx="3" fill="#1F1433"></rect><rect x="56" y="14" width="8" height="10" rx="2" fill="#7A4A1E" stroke="#1F1433" stroke-width="4" stroke-linejoin="round"></rect><path d="M60 26 v7" stroke="#1F1433" stroke-width="4" stroke-linecap="round"></path><path d="M60 99 v7" stroke="#1F1433" stroke-width="4" stroke-linecap="round"></path><path d="M20 66 h7" stroke="#1F1433" stroke-width="4" stroke-linecap="round"></path><path d="M93 66 h7" stroke="#1F1433" stroke-width="4" stroke-linecap="round"></path><path d="M45.6 69.2 Q50.4 62.0 55.2 69.2" fill="none" stroke="#1F1433" stroke-width="3.8" stroke-linecap="round" stroke-linejoin="round"></path><path d="M64.8 69.2 Q69.6 62.0 74.4 69.2" fill="none" stroke="#1F1433" stroke-width="3.8" stroke-linecap="round" stroke-linejoin="round"></path><path d="M52.8 74.0 h14.4 q0 9.6 -7.2 9.6 q-7.2 0 -7.2 -9.6Z" fill="#1F1433" stroke="#1F1433" stroke-width="2.4" stroke-linejoin="round"></path><ellipse cx="60.0" cy="80.6" rx="3.8" ry="2.2" fill="#FF6F8F"></ellipse><ellipse cx="43.8" cy="74.6" rx="4.3" ry="2.8" fill="#FF8FB1" opacity="0.85"></ellipse><ellipse cx="76.2" cy="74.6" rx="4.3" ry="2.8" fill="#FF8FB1" opacity="0.85"></ellipse></svg>
