<?xml version="1.0" encoding="UTF-8"?>
<svg xmlns="http://www.w3.org/2000/svg" viewBox="0 0 120 120" role="img" aria-label="Mascotte mandarine-minuteur"><circle cx="60" cy="66" r="44" fill="#FF8A2A" stroke="#1F1433" stroke-width="4" stroke-linejoin="round"></circle><path d="M32 48 Q40 32 58 28" fill="none" stroke="#FFB36B" stroke-width="6" stroke-linecap="round"></path><rect x="53" y="8" width="14" height="8" rx="3" fill="#1F1433"></rect><rect x="56" y="14" width="8" height="10" rx="2" fill="#7A4A1E" stroke="#1F1433" stroke-width="4" stroke-linejoin="round"></rect><path d="M60 26 v7" stroke="#1F1433" stroke-width="4" stroke-linecap="round"></path><path d="M60 99 v7" stroke="#1F1433" stroke-width="4" stroke-linecap="round"></path><path d="M20 66 h7" stroke="#1F1433" stroke-width="4" stroke-linecap="round"></path><path d="M93 66 h7" stroke="#1F1433" stroke-width="4" stroke-linecap="round"></path><ellipse cx="50.4" cy="68.0" rx="4.1" ry="5.0" fill="#1F1433"></ellipse><ellipse cx="69.6" cy="68.0" rx="4.1" ry="5.0" fill="#1F1433"></ellipse><ellipse cx="51.8" cy="66.1" rx="1.3" ry="1.6" fill="#FFFFFF"></ellipse><ellipse cx="71.0" cy="66.1" rx="1.3" ry="1.6" fill="#FFFFFF"></ellipse><path d="M54.0 75.2 Q60.0 81.2 66.0 75.2" fill="none" stroke="#1F1433" stroke-width="3.8" stroke-linecap="round" stroke-linejoin="round"></path><ellipse cx="43.8" cy="74.6" rx="4.3" ry="2.8" fill="#FF8FB1" opacity="0.85"></ellipse><ellipse cx="76.2" cy="74.6" rx="4.3" ry="2.8" fill="#FF8FB1" opacity="0.85"></ellipse></svg>
