<?xml version="1.0" encoding="UTF-8"?>
<svg xmlns="http://www.w3.org/2000/svg" viewBox="0 0 120 120" aria-hidden="true"><rect x="26" y="8" width="68" height="106" rx="16" fill="#3D7BFF" stroke="#1F1433" stroke-width="4" stroke-linejoin="round"></rect><path d="M26 44 H94" stroke="#1F1433" stroke-width="4" stroke-linejoin="round" fill="none"></path><rect x="80" y="20" width="6" height="15" rx="3" fill="#1F1433"></rect><rect x="80" y="52" width="6" height="22" rx="3" fill="#1F1433"></rect><path d="M34 18 v16" stroke="#8FB4FF" stroke-width="5" stroke-linecap="round"></path><rect x="34" y="112" width="12" height="6" rx="3" fill="#1F1433"></rect><rect x="74" y="112" width="12" height="6" rx="3" fill="#1F1433"></rect><path d="M42.8 81.1 Q47.2 74.5 51.6 81.1" fill="none" stroke="#1F1433" stroke-width="3.5" stroke-linecap="round" stroke-linejoin="round"></path><path d="M60.4 81.1 Q64.8 74.5 69.2 81.1" fill="none" stroke="#1F1433" stroke-width="3.5" stroke-linecap="round" stroke-linejoin="round"></path><path d="M49.4 85.5 h13.2 q0 8.8 -6.6 8.8 q-6.6 0 -6.6 -8.8Z" fill="#1F1433" stroke="#1F1433" stroke-width="2.2" stroke-linejoin="round"></path><ellipse cx="56.0" cy="91.5" rx="3.5" ry="2.0" fill="#FF6F8F"></ellipse><ellipse cx="41.2" cy="86.0" rx="4.0" ry="2.5" fill="#FF8FB1" opacity="0.85"></ellipse><ellipse cx="70.8" cy="86.0" rx="4.0" ry="2.5" fill="#FF8FB1" opacity="0.85"></ellipse></svg>
